<svg t="1708253825628" class="icon" viewBox="0 0 1024 1024" version="1.1" xmlns="http://www.w3.org/2000/svg" p-id="4372" width="200" height="200"><path d="M911.074 65c12.978 0 24.703 4.835 35.174 14.595C956.719 89.265 962 100.638 962 113.532v795.936c0 12.984-5.28 24.266-15.752 33.937-10.561 9.76-22.286 14.595-35.174 14.595H683.118V613.443h116.44l17.005-135.924H683.207v-88.736c0-44.323 22.644-66.53 67.931-66.53h70.347V205.581c-24.255-4.746-58.98-7.164-104.268-7.164-51.73 0-93.348 15.76-124.942 47.278-31.683 31.609-47.434 75.753-47.434 132.343v99.48H428.4v135.925h116.44V958H115.509c-12.977 0-24.255-4.835-33.92-14.595C71.832 933.735 67 922.452 67 909.468V113.532c0-12.894 4.833-24.266 14.588-33.937C91.255 69.925 102.621 65 115.51 65h795.565z" fill="#1296db" p-id="4373"></path></svg>