<svg t="1708253854269" class="icon" viewBox="0 0 1024 1024" version="1.1" xmlns="http://www.w3.org/2000/svg" p-id="5404" width="200" height="200"><path d="M48.761905 0h926.47619a48.761905 48.761905 0 0 1 48.761905 48.761905v926.47619a48.761905 48.761905 0 0 1-48.761905 48.761905H48.761905a48.761905 48.761905 0 0 1-48.761905-48.761905V48.761905a48.761905 48.761905 0 0 1 48.761905-48.761905z m254.390857 846.019048V391.460571H151.649524v454.558477h151.503238zM227.376762 336.359619a86.064762 86.064762 0 1 0 0-172.080762 86.064762 86.064762 0 0 0 0 172.129524zM872.838095 846.019048v-283.404191s-1.462857-106.105905-60.464762-146.675809c-55.100952-37.936762-87.966476-33.792-111.957333-34.669715-24.039619-0.877714-80.067048 4.437333-113.810286 28.476953-33.792 23.990857-39.789714 44.422095-39.789714 44.422095V391.460571h-146.773333v454.607239h153.112381v-270.092191s11.215238-70.217143 89.429333-71.094857c78.214095-0.926476 74.654476 71.094857 74.654476 71.094857l3.559619 270.043429h152.039619z" fill="#1296db" p-id="5405"></path></svg>