<svg t="1708253889126" class="icon" viewBox="0 0 1024 1024" version="1.1" xmlns="http://www.w3.org/2000/svg" p-id="6455" width="200" height="200"><path d="M170.666667 0h682.666666c113.776281 0 170.666667 56.890386 170.666667 170.666667v682.666666c0 113.776281-56.890386 170.666667-170.666667 170.666667H170.666667c-113.776281 0-170.666667-56.890386-170.666667-170.666667V170.666667C0 56.890386 56.890386 0 170.666667 0z" fill="#010101" p-id="6456"></path><path d="M646.593123 938.666667c32.305404 0 58.529684-26.156912 58.529684-58.385965 0-32.269474-26.18386-58.385965-58.529684-58.385965h-8.798316c32.305404 0 58.529684 26.116491 58.529684 58.385965 0 32.229053-26.269193 58.385965-58.570105 58.385965h8.843228z" fill="#EE1D51" p-id="6457"></path><path d="M637.754386 821.894737h-8.838737c-32.305404 0-58.529684 26.116491-58.529684 58.385965 0 32.229053 26.228772 58.385965 58.529684 58.385965H637.754386c-32.345825 0-58.570105-26.156912-58.570105-58.385965 0-32.269474 26.228772-58.385965 58.570105-58.385965z" fill="#66C8CF" p-id="6458"></path><path d="M597.333333 882.526316a42.657684 42.657684 0 0 0 64 36.949333 42.657684 42.657684 0 0 0 0-73.898667A42.671158 42.671158 0 0 0 597.333333 882.526316z" fill="#010101" p-id="6459"></path><path d="M188.631579 808.421053v29.731929h34.726175v113.129544h34.762106v-112.357052h28.263298L296.057263 808.421053H188.631579z m284.339649 0v29.731929h34.771088v113.129544h34.721684v-112.357052h28.258807L580.491228 808.421053h-107.55593 0.044913z m-170.406175 16.86007A16.891509 16.891509 0 0 1 319.479018 808.421053c9.418105 0 16.999298 7.549754 16.999298 16.86007a16.963368 16.963368 0 0 1-5.016702 11.955649 16.896 16.896 0 0 1-11.982596 4.904421 16.855579 16.855579 0 0 1-11.969123-4.904421 16.918456 16.918456 0 0 1-4.985263-11.955649h0.044912z m0 28.914526h33.908772v97.086877h-33.953685v-97.086877h0.044913zM350.989474 808.421053v142.906386h33.953684v-36.895439l10.491509-9.65614L428.575439 952.140351h36.352l-47.696843-69.075088 42.814878-41.736982H418.85193l-33.908772 33.72014V808.421053h-33.953684z m365.954245 0v142.906386h33.953685v-36.895439l10.487017-9.65614 33.145263 47.364491H830.877193l-47.65193-69.075088 42.814877-41.736982h-41.229473l-33.913263 33.72014V808.421053h-33.953685z m-79.166877 128.705122c32.58386 0 59.001263-26.255719 59.001263-58.606035 0-32.390737-26.417404-58.601544-59.001263-58.601544h-0.772491c-32.58386 0-59.001263 26.210807-59.001263 58.601544 0 32.350316 26.417404 58.606035 59.001263 58.606035h0.772491z m-29.071719-58.606035c0-15.741754 12.844912-28.483368 28.685473-28.483368 15.840561 0 28.685474 12.741614 28.685474 28.483368 0 15.746246-12.844912 28.48786-28.685474 28.48786a28.532772 28.532772 0 0 1-20.232982-8.290807 28.645053 28.645053 0 0 1-8.452491-20.197053z" fill="#FFFFFF" p-id="6460"></path><path d="M656.563649 316.564211A269.177263 269.177263 0 0 0 812.912281 366.237193v-111.427368a160.69614 160.69614 0 0 1-32.817404-3.404351v87.70021a269.177263 269.177263 0 0 1-156.348631-49.672982v227.449263c0.031439 76.126316-42.159158 146.068211-109.729685 181.894737-67.575018 35.831018-149.512982 31.712561-213.10428-10.707088A207.521684 207.521684 0 0 0 449.212632 750.035088c114.481404 0 207.306105-92.222877 207.351017-206.017123V316.564211z m40.51986-112.451369a154.88 154.88 0 0 1-40.51986-90.974316V98.807018h-31.106245c7.765333 43.609825 33.800982 81.893053 71.626105 105.305824z m-323.72772 396.638316a93.790316 93.790316 0 0 1-2.01207-111.409404c23.857404-33.594386 66.869895-47.94386 106.280421-35.444772v-113.987368a210.481404 210.481404 0 0 0-32.817403-1.868351v88.674807c-47.157895-15.023158-98.007579 8.560281-116.727018 54.132772-18.714947 45.572491 1.006035 97.787509 45.271579 119.861895v0.044912z" fill="#EE1D52" p-id="6461"></path><path d="M626.220912 289.446175A265.997474 265.997474 0 0 0 781.473684 339.12814V251.374035a155.809684 155.809684 0 0 1-82.427509-47.256702A156.106105 156.106105 0 0 1 627.918596 98.807018h-81.152v445.251368c-0.134737 40.421053-25.990737 76.25207-64.273964 89.092491a94.13614 94.13614 0 0 1-104.915088-32.354807c-44.10386-21.993544-63.81586-74.31186-45.195228-119.983158 18.620632-45.671298 69.263719-69.245754 116.15214-54.065403V338.063719c-82.023298 1.733614-155.185404 52.053333-186.215298 128.080842-31.034386 76.023018-14.012632 163.238175 43.322386 221.978948a205.666807 205.666807 0 0 0 211.613193 10.707087c67.098947-35.831018 109.002105-105.777404 108.966175-181.90821V289.446175z" fill="#FFFFFF" p-id="6462"></path><path d="M781.473684 252.541754v-23.861894a156.106105 156.106105 0 0 1-82.903579-23.69572A156.591158 156.591158 0 0 0 781.473684 252.541754z m-154.439859-153.397894a188.371088 188.371088 0 0 1-1.706667-12.831439V71.859649h-112.689404v447.663158a94.823298 94.823298 0 0 1-45.20421 80.487298 94.679579 94.679579 0 0 1-92.182456 3.844491 94.697544 94.697544 0 0 0 105.516912 32.525474 94.805333 94.805333 0 0 0 64.646737-89.573052V99.14386h81.619088z m-180.417123 240.550175V314.29614c-95.541895-13.267088-187.585123 41.242947-221.934035 131.440281-34.353404 90.197333-1.913263 192.18414 78.219228 245.917193-57.667368-59.059649-74.783439-146.741895-43.573895-223.178105 31.214035-76.440702 104.793825-127.029895 187.284211-128.776983z" fill="#69C9D0" p-id="6463"></path></svg>