<svg t="1708139026469" class="icon" viewBox="0 0 1024 1024" version="1.1" xmlns="http://www.w3.org/2000/svg" p-id="5110" width="200" height="200"><path d="M621.491356 717.219546c-3.683821 0-7.367643-0.204657-11.051464-0.716298-22.819227-2.865194-55.359648-15.553912-91.583891-35.610273-37.963825-21.079644-74.597382-47.68502-103.249326-74.802039-28.651944-27.219346-56.689917-62.113321-78.997501-98.235235-21.386629-34.689317-34.893974-66.001799-37.963826-88.104727-2.353553-16.577196 1.534926-34.484661 11.153793-51.982812 7.981613-14.530629 19.851704-28.447287 34.177675-40.215049l2.251224-1.841911c10.02818-8.288598 20.363346-16.781853 37.04287-23.023883 12.381733-5.321075 26.605376-5.62806 39.498751-0.204657 2.762866 1.22794 6.242031 3.069851 7.162986 3.581493 3.888478 1.841911 19.44239 10.437494 35.917258 32.335765 4.911762 6.549016 12.688718 17.60048 18.316778 27.219347 9.721195 16.577196 15.963226 30.698511 15.963226 30.903167l1.841911 5.218747c5.832717 14.735285 2.455881 31.41481-9.107225 43.387229-0.409313 0.409313-0.716299 0.818627-1.125612 1.125612l-3.990807 3.581493c-1.944239 1.739582-2.558209 2.148896-3.069851 2.558209-6.651344 4.40012-8.595583 5.525732-10.744479 6.651344-1.023284 0.61397-2.148896 1.125612-4.40012 2.55821-6.344359 3.78615-11.665434 5.935045-16.884181 7.981613-2.455881 0.920955-5.01409 2.046567-7.879284 3.274507 8.493255 16.986509 23.023883 34.791646 46.764065 57.303888 22.205256 21.079644 44.103528 34.791646 62.829619 45.433796 0.306985-0.409313 1.023284-1.023284 1.227941-1.534926 2.148896-3.78615 4.093135-7.674628 5.832717-11.25612 2.148896-4.297792 3.581493-7.162986 5.01409-9.618867 3.990806-7.060658 6.856001-11.563106 8.493255-14.018987 1.432597-2.046567 2.762866-3.990806 4.297791-5.730388 5.116419-6.856001 12.688718-12.279404 20.772659-15.042271 10.949136-3.78615 24.968122-3.069851 34.791646 1.841911l16.474868 9.004896c3.172179 1.944239 8.18627 5.218747 14.325972 9.209554l3.376836 2.251224 30.903168 23.433197c13.405016 11.051464 18.930748 17.498151 19.954032 18.623763l4.604776 5.525732c0.716299 0.920955 1.330269 1.841911 1.841911 2.660538l5.321075 7.776956v2.353552c5.116419 14.325972 1.841911 30.596183-3.274508 41.749975-8.493255 18.21445-23.944839 33.154392-28.447286 37.349855-18.726092 17.293495-44.410513 37.04287-78.383532 37.04287zM403.429599 333.590487c-2.251224 0-4.502448 0.511642-7.265314 1.739582-11.870091 4.40012-18.521435 9.925852-27.730988 17.498151l-2.251224 1.841911c-10.949136 9.004897-19.851704 19.44239-25.78675 30.084541-5.935045 10.744479-8.390926 21.181973-7.162986 30.186869 2.353553 16.986509 14.735285 44.819826 33.052064 74.597382 20.772659 33.563705 46.764065 66.001799 73.267113 91.174578 26.605376 25.172779 60.783052 49.936245 96.188668 69.583291 31.517138 17.498151 60.987709 29.265914 78.895173 31.517138 24.149495 2.967523 45.945438-12.995703 61.294694-27.219346 6.549016-6.037374 15.860897-16.577196 20.465674-26.40072 2.251224-4.707105 3.479165-12.279404 1.841911-15.553912l-3.274508-4.502448-2.148896-2.455881c-0.102328-0.102328-4.40012-5.01409-15.656241-14.325972l-5.218746-4.297792-25.991406-19.135405c-5.935045-3.888478-10.744479-6.958329-13.81433-8.902568l-5.628061-3.479165-7.674628-3.786149c-0.61397-0.306985-6.753672-0.409313-7.776956-0.102329-1.637254 0.511642-3.376836 1.841911-4.297791 3.17218l-1.739583 2.046567c-0.511642 0.61397-1.023284 1.330269-1.534925 2.148896-1.432597 2.046567-3.683821 5.730389-6.856001 11.256121-1.125612 2.046567-2.353553 4.604777-3.683821 7.162986-2.660538 5.218747-4.809433 9.618867-7.162986 13.81433-5.525732 9.823524-17.60048 19.749375-32.02878 19.851703-5.525732 0-10.949136-1.432597-15.963226-4.297791-20.772659-11.767763-45.433796-27.01469-70.708903-51.061857-28.8566-27.424003-46.252423-49.62926-56.382932-72.141501-5.116419-11.358449-2.046567-32.131108 14.4283-40.112721 5.525732-2.660538 10.130509-4.502448 14.121315-6.139702 4.502448-1.841911 7.981613-3.172179 11.563106-5.321075 2.967523-1.841911 4.502448-2.660538 5.935045-3.479165 1.739582-0.920955 3.172179-1.739582 7.265314-4.40012l2.967523-2.660537c2.455881-2.353553 3.069851-4.809433 1.944239-7.674628l-1.125612-3.376836c-1.432597-3.172179-6.549016-14.325972-13.916658-26.810033-4.911762-8.390926-11.767763-18.112122-16.167883-23.944839-12.484061-16.577196-23.22854-21.898271-23.637853-22.102928-1.125612-0.61397-3.78615-1.944239-5.321075-2.660538-1.534926-0.920955-3.479165-1.330269-5.321076-1.330268z" fill="#ffffff" p-id="5111"></path><path d="M516.093135 949.402618c-243.439193 0-441.546917-198.107725-441.546917-441.546917S272.653942 66.308784 516.093135 66.308784s441.546917 198.107725 441.546917 441.546917c0 243.541521-198.107725 441.546917-441.546917 441.546917z m0-841.036874c-220.312981 0-399.489957 179.176976-399.489957 399.489957S295.780154 907.345658 516.093135 907.345658s399.489957-179.176976 399.489957-399.489957S736.406116 108.365744 516.093135 108.365744z" fill="#ffffff" p-id="5112"></path></svg>