<svg t="1708236627229" class="icon" viewBox="0 0 1024 1024" version="1.1" xmlns="http://www.w3.org/2000/svg" p-id="9862" width="200" height="200"><path d="M755.618 209.088a21.61 21.61 0 0 0-1.406-1.546l-90.496-90.498c-4-4-9.438-6.25-15.094-6.25a21.316 21.316 0 0 0-15.094 6.264l-130.308 130.574c-32.436 31.906-47.218 62.5-61.498 92.092-16.376 33.906-31.842 65.92-74.216 103.73-85.154 75.982-171.37 162.574-236.586 237.54C50.454 773.49 6.488 842.392 0.238 885.798a21.36 21.36 0 0 0 9.032 20.624l100.558 69.122a21.322 21.322 0 0 0 12.062 3.75c1.968 0 3.968-0.282 5.906-0.844a21.3 21.3 0 0 0 13.688-12c35.624-82.214 73.654-148.37 119.714-208.242 47.28-61.436 99.872-111.246 145.09-151.87 115.62-103.888 204.492-199.056 258.678-260.6 30.75-34.906 53.84-62.966 67.84-80.358a1463.432 1463.432 0 0 0 17.438-22.108 901.204 901.204 0 0 0 4.468-5.844l1.124-1.516c7.188-9.59 5.062-20.386-0.218-26.824z" fill="#ffffff" p-id="9863"></path><path d="M724.054 177.37c0.5 0.5 0.968 1.016 1.406 1.546 5.282 6.436 7.406 17.234 0.218 26.828l-1.156 1.516c-1 1.328-2.468 3.282-4.468 5.844a1294.274 1294.274 0 0 1-17.434 22.108c-13.968 17.39-37.094 45.452-67.812 80.356-54.184 61.546-143.058 156.714-258.678 260.584-45.218 40.624-97.81 90.466-145.09 151.9-46.06 59.874-84.12 126.028-119.744 208.214a21.19 21.19 0 0 1-13.688 12.032 21.128 21.128 0 0 1-17.968-2.938L0.112 890.674a21.312 21.312 0 0 0 9.156 15.75l100.558 69.122a21.322 21.322 0 0 0 12.062 3.75c1.968 0 3.968-0.282 5.906-0.844a21.3 21.3 0 0 0 13.688-12c35.624-82.214 73.654-148.37 119.714-208.242 47.28-61.436 99.872-111.246 145.09-151.87 115.62-103.888 204.492-199.056 258.678-260.6 30.75-34.906 53.84-62.966 67.84-80.358a1463.432 1463.432 0 0 0 17.438-22.108 901.204 901.204 0 0 0 4.468-5.844l1.124-1.516c7.188-9.592 5.062-20.388-0.218-26.826a21.61 21.61 0 0 0-1.406-1.546l-90.496-90.498v-0.016l60.34 60.342z" fill="#ffffff" opacity=".1" p-id="9864"></path><path d="M1018.11 398.846c7.968-8.376 7.812-21.592-0.376-29.78L699.622 50.952c-8.312-8.328-21.844-8.328-30.156 0l-90.496 90.514c-4.032 4-6.25 9.422-6.25 15.078s2.218 11.092 6.25 15.092l135.742 135.76c2.812 2.812 5.968 4.688 9.844 5.592 3.718 0.968 14.938 5.032 22.062 12.156 4.532 4.532 6.438 9.14 6.25 14.954-0.312 10.016-7.468 32.608-51.652 71.356a21.42 21.42 0 0 0-6.876 20.124l29.59 151.416a21.5 21.5 0 0 0 5.876 11 21.388 21.388 0 0 0 23.186 4.656c121.778-50.026 259.336-193.71 265.118-199.804z" fill="#ffffff" p-id="9865"></path><path d="M835.394 186.712L699.62 50.95c-8.312-8.328-21.844-8.328-30.156 0l-90.496 90.514c-4.032 4-6.25 9.422-6.25 15.078s2.218 11.078 6.218 15.078l135.774 135.776 120.684-120.684zM1017.734 369.066l-38.5-38.514c-36.528 40.218-125.872 130.496-262.242 216.884l6.938 35.56a21.5 21.5 0 0 0 5.876 11 21.388 21.388 0 0 0 23.186 4.656c121.778-50.03 259.336-193.712 265.118-199.806 7.968-8.374 7.812-21.592-0.376-29.78z" fill="#ffffff" p-id="9866"></path></svg>