<svg t="1708236924874" class="icon" viewBox="0 0 1024 1024" version="1.1" xmlns="http://www.w3.org/2000/svg" p-id="19869" width="200" height="200"><path d="M585.344 137.344l-256 256A32 32 0 0 0 320 416v114.752l-54.656 54.592a32 32 0 0 0 0 45.312l32 32L64 896h256l105.344-105.344 32 32a32 32 0 0 0 45.312 0L557.248 768H672a32 32 0 0 0 22.656-9.344l256-256-45.312-45.312L704 658.752 429.248 384l201.408-201.344-45.312-45.312zM384 429.248L658.752 704H544a32 32 0 0 0-22.656 9.344l-41.344 41.408L333.248 608l41.408-41.344A32 32 0 0 0 384 544V429.248z" fill="#ffffff" p-id="19870"></path></svg>