<svg t="1708236876379" class="icon" viewBox="0 0 1024 1024" version="1.1" xmlns="http://www.w3.org/2000/svg" p-id="18813" width="200" height="200"><path d="M393.854515 0.000788C329.032025 0.000788 275.70903 53.323783 275.70903 118.146273S329.032025 236.291758 393.854515 236.291758h219.986893L129.68121 720.373192A39.381828 39.381828 0 0 0 118.181716 748.255527v236.29097a39.381828 39.381828 0 0 0 67.264163 27.882334L845.091504 352.86197a206.12449 206.12449 0 0 0 44.737757-225.264058A205.966962 205.966962 0 0 0 698.669866 0.000788H393.854515z m0 78.763656h304.894115c58.678924 0 99.714789 33.947136 118.303012 78.921184 18.588223 44.895284 13.626113 97.903225-27.80357 139.411673L196.945373 889.399999V764.559603l492.115327-492.115327a68.524381 68.524381 0 0 0 14.492513-73.407728 68.524381 68.524381 0 0 0-62.223289-41.508447H393.854515a38.830483 38.830483 0 0 1-39.381828-39.381828c0-22.132588 17.249241-39.381828 39.381828-39.381829z" fill="#ffffff" p-id="18814"></path></svg>