<svg t="1708236554235" class="icon" viewBox="0 0 1024 1024" version="1.1" xmlns="http://www.w3.org/2000/svg" p-id="4344" width="200" height="200"><path d="M889.851528 526.160116c-25.339156 20.86754-67.074236 55.149927-93.90393 77.508006l-1.490538 1.490539c-5.962154 4.471616-13.414847 7.452693-19.377002 5.962154-8.943231 0-14.905386-4.471616-20.86754-10.43377l-14.905386-14.905386-40.244541-40.244541c-5.962154-4.471616-4.471616-13.414847-2.981077-20.86754 5.962154-14.905386 4.471616-34.282387-7.452693-46.206696L655.836972 445.671033c-2.981077 2.981077-5.962154 4.471616-8.943231 5.962155-11.924309 10.43377-22.358079 22.358079-34.282387 32.791848 2.981077 16.395924-1.490539 32.791849-14.905386 46.206696-10.43377 10.43377-23.848617 14.905386-37.263464 14.905386v1.490538L189.298399 918.171761c-7.452693 8.943231-20.86754 11.924309-32.791849 7.452693-5.962154-2.981077-11.924309-7.452693-16.395924-11.924308-17.886463-19.377001-37.263464-37.263464-56.640466-56.640466-5.962154-5.962154-10.43377-13.414847-10.43377-22.358079s2.981077-16.395924 8.943232-22.358078C163.959243 731.85444 299.598253 596.215429 381.577875 512.745269L447.161572 447.161572c-4.471616-17.886463 0-35.772926 13.414847-49.187773 11.924309-11.924309 26.829694-16.395924 41.73508-14.905386 7.452693-7.452693 16.395924-14.905386 22.358079-25.339155 1.490539-1.490539 2.981077-4.471616 2.981077-7.452693 4.471616-11.924309 2.981077-26.829694-1.490539-38.754003-7.452693-19.377001-20.86754-37.263464-32.791848-53.659389-11.924309-13.414847-23.848617-26.829694-37.263465-38.754003l-2.981077-2.981077c-46.206696-40.244541-101.356623-67.074236-157.997088-87.941776-5.962154-2.981077-13.414847-2.981077-20.86754-5.962154 38.754003 0 77.508006 1.490539 116.262008 4.471616 14.905386 0 29.810771 2.981077 44.716157 4.471615 4.471616 0 8.943231 1.490539 13.414848 1.490539 26.829694 2.981077 52.16885 7.452693 78.998544 13.414847 7.452693 1.490539 13.414847 2.981077 20.86754 5.962154 11.924309 2.981077 22.358079 7.452693 32.791849 13.414848 11.924309 4.471616 20.86754 14.905386 29.810771 23.848617l49.187773 49.187773c22.358079 22.358079 46.206696 44.716157 68.564774 67.074236 5.962154 5.962154 13.414847 11.924309 16.395925 20.86754 2.981077 7.452693 2.981077 16.395924-1.490539 23.848617-2.981077 5.962154-7.452693 8.943231-11.924308 14.905386 10.43377 10.43377 20.86754 20.86754 29.810771 31.30131 4.471616 4.471616 7.452693 10.43377 13.414847 11.924308 10.43377 11.924309 29.810771 13.414847 46.206696 8.943232 7.452693-1.490539 16.395924-1.490539 20.86754 4.471615l26.829694 31.30131 22.358079 26.829695c4.471616 5.962154 8.943231 13.414847 8.943231 22.358078 1.490539 8.943231-4.471616 17.886463-10.43377 23.848617z" fill="#ffffff" p-id="4345"></path></svg>