<?xml version="1.0" encoding="utf-8"?>
<svg version="1.1" xmlns:xlink="http://www.w3.org/1999/xlink" width="90px" height="90px" xmlns="http://www.w3.org/2000/svg">
  <g transform="matrix(1 0 0 1 498 -219 )">
    <path d="M -453 219  C -427.8 219  -408 238.8  -408 264  C -408 289.2  -427.8 309  -453 309  C -478.2 309  -498 289.2  -498 264  C -498 238.8  -478.2 219  -453 219  Z " fill-rule="nonzero" fill="#ffffff" stroke="none" />
    <path d="M -453 219.5  C -428.08 219.5  -408.5 239.08  -408.5 264  C -408.5 288.92  -428.08 308.5  -453 308.5  C -477.92 308.5  -497.5 288.92  -497.5 264  C -497.5 239.08  -477.92 219.5  -453 219.5  Z " stroke-width="1" stroke="#797979" fill="none" />
  </g>
</svg>